<svg xmlns="http://www.w3.org/2000/svg" xmlns:xlink="http://www.w3.org/1999/xlink" xml:space="preserve" version="1.1" style="shape-rendering:geometricPrecision;text-rendering:geometricPrecision;image-rendering:optimizeQuality;" viewBox="0 0 33044 63365" x="0px" y="0px" fill-rule="evenodd" clip-rule="evenodd"><defs><style type="text/css">
   
    .fil0 {fill:black;fill-rule:nonzero}
   
  </style></defs><g><path class="fil0" d="M3797 0l14786 0c1044,0 1994,427 2682,1115 687,688 1115,1637 1115,2682l0 16803c1911,757 2788,2299 3653,3821 593,1045 1181,2077 2096,2623 924,550 1736,1182 2327,1961 634,836 998,1811 958,2985 -149,4320 208,6307 827,9754 200,1110 427,2369 666,3864 338,911 32,1742 -706,2468 -530,521 -1315,985 -2228,1370 -870,367 -1860,669 -2854,885 -2882,625 -5971,491 -6812,-825 -42,-67 -75,-137 -99,-208 -67,-191 -156,-426 -261,-695l-288 -721c-1078,-892 -2180,-1853 -3176,-2916 -957,-1022 -1803,-2128 -2415,-3337 -965,-136 -1483,-43 -2396,120 -396,71 -851,153 -1291,219 -1364,204 -2369,-491 -2910,-1479 -226,-413 -366,-882 -409,-1353 -44,-484 11,-974 175,-1415l38 -89c35,-86 74,-170 116,-251l-3594 0c-1045,0 -1994,-427 -2682,-1115 -688,-687 -1115,-1638 -1115,-2682l0 -29787c0,-1045 427,-1994 1115,-2682 688,-688 1637,-1115 2682,-1115zm18583 30887l1859 1859c412,410 414,1077 5,1489 -410,412 -1078,414 -1489,4l-2177 -2175c-1114,-943 -2294,-1878 -3526,-2806 -1321,-993 -2724,-1995 -4192,-3004 -705,-484 -1320,-544 -1769,-354 -198,84 -373,221 -511,392 -144,179 -246,391 -296,616 -112,502 29,1089 529,1573 1332,1292 2499,2491 3582,3750 988,1149 1906,2350 2816,3719 199,148 338,371 376,632 30,94 48,193 48,298 0,41 -3,83 -7,124 144,1419 386,2495 812,3424 459,1003 1156,1889 2199,2907 379,368 387,975 18,1355 -369,379 -976,387 -1355,19 -1212,-1183 -2035,-2241 -2604,-3485 -453,-988 -732,-2062 -907,-3376l-5932 44c-428,3 -687,194 -803,449l-17 49c-65,176 -87,375 -69,573 19,213 82,425 183,609 181,329 510,562 951,496 559,-83 920,-149 1230,-204 1287,-231 1933,-347 3560,-41 299,57 566,254 699,552 528,1187 1343,2276 2287,3284 953,1019 2055,1970 3135,2858 144,103 262,246 333,422l386 965 240 636c491,507 2621,373 4739,-87 901,-195 1776,-460 2517,-772 697,-294 1273,-626 1626,-972 185,-182 282,-341 248,-454 -35,-77 -60,-159 -73,-245 -250,-1564 -476,-2822 -674,-3929 -643,-3575 -1013,-5637 -858,-10151 24,-695 -192,-1273 -568,-1769 -420,-553 -1050,-1034 -1785,-1472 -1349,-804 -2061,-2056 -2780,-3322 -552,-971 -1111,-1953 -1986,-2586l0 8106zm-9395 -14861l0 2072 -1198 0 0 -2072 1198 0zm5686 -2095l0 2301 -1197 0 0 -2301 1197 0zm-1925 5568l1925 0 0 1197 -1925 0 0 -1197zm-4959 0l3442 0 0 1197 -3442 0 0 -1197zm0 -5568l3504 0 0 1171 1454 0 0 1198 -1454 0 0 874 3380 0 0 1198 -4577 0 0 -3244 -2307 0 0 -1197zm-5118 2367l1851 0 0 1852 -1851 0 0 -1852zm-1927 -2526l6304 0 0 6904 -6903 0 0 -6904 599 0zm5107 1198l-4508 0 0 4508 4508 0 0 -4508zm4446 -6139l1851 0 0 1851 -1851 0 0 -1851zm-1927 -2526l6304 0 0 6903 -6903 0 0 -6903 599 0zm5107 1197l-4508 0 0 4508 4508 0 0 -4508zm-10806 1329l1851 0 0 1851 -1851 0 0 -1851zm-1927 -2526l6304 0 0 6903 -6903 0 0 -6903 599 0zm5107 1197l-4508 0 0 4508 4508 0 0 -4508zm10608 21976l0 -8186 0 -17495c0,-514 -212,-984 -551,-1323 -340,-340 -809,-551 -1323,-551l-14786 0c-514,0 -984,211 -1323,551 -340,339 -551,809 -551,1323l0 29787c0,515 211,983 551,1323 339,339 809,551 1323,551l10727 0c-513,-689 -1038,-1343 -1586,-1980l-21 -25c-467,398 -1070,638 -1727,638 -734,0 -1401,-300 -1884,-782 -486,-483 -784,-1150 -784,-1887 0,-702 271,-1341 715,-1817 -833,-953 -1049,-2097 -823,-3110 115,-519 348,-1002 672,-1404 330,-409 759,-743 1262,-956 1007,-426 2281,-365 3601,542 1471,1011 2893,2027 4252,3049 779,586 1532,1170 2256,1752zm-8390 3020c-603,-658 -1240,-1312 -1922,-1988 -213,245 -341,563 -341,912 0,383 155,730 405,981 250,251 597,406 981,406 333,0 638,-117 877,-311z"/></g><text x="0" y="50707" fill="#000000" font-size="5px" font-weight="bold" font-family="'Helvetica Neue', Helvetica, Arial-Unicode, Arial, Sans-serif">Created by Jenie Tomboc</text><text x="0" y="50712" fill="#000000" font-size="5px" font-weight="bold" font-family="'Helvetica Neue', Helvetica, Arial-Unicode, Arial, Sans-serif">from the Noun Project</text></svg>